<svg width="24" height="24" viewBox="0 0 24 24" fill="none" xmlns="http://www.w3.org/2000/svg">
<path d="M0.75 20.2627C1.56444 20.3635 2.3911 20.2811 3.16964 20.0216C3.94818 19.7621 4.65893 19.332 5.25 18.7627C5.67632 19.2349 6.19699 19.6124 6.77835 19.8708C7.35971 20.1291 7.98881 20.2626 8.625 20.2626C9.26119 20.2626 9.89029 20.1291 10.4716 19.8708C11.053 19.6124 11.5737 19.2349 12 18.7627C12.4263 19.2349 12.947 19.6124 13.5284 19.8708C14.1097 20.1291 14.7388 20.2626 15.375 20.2626C16.0112 20.2626 16.6403 20.1291 17.2216 19.8708C17.803 19.6124 18.3237 19.2349 18.75 18.7627C19.3411 19.332 20.0518 19.7621 20.8304 20.0216C21.6089 20.2811 22.4356 20.3635 23.25 20.2627" stroke="black" stroke-width="1.5" stroke-linecap="round" stroke-linejoin="round"/>
<path d="M2.25 17.2627V15.7627C2.25 15.3649 2.40804 14.9833 2.68934 14.702C2.97064 14.4207 3.35218 14.2627 3.75 14.2627H22.5C22.6346 14.263 22.7667 14.2994 22.8824 14.3682C22.9982 14.437 23.0932 14.5357 23.1578 14.6539C23.2223 14.7721 23.2538 14.9054 23.2491 15.0399C23.2444 15.1745 23.2036 15.3053 23.131 15.4187L22.107 17.0107" stroke="black" stroke-width="1.5" stroke-linecap="round" stroke-linejoin="round"/>
<path d="M5.25 14.2627V11.2627C5.25 10.8649 5.09196 10.4833 4.81066 10.202C4.52936 9.92073 4.14782 9.76269 3.75 9.76269C3.35218 9.76269 2.97064 9.60466 2.68934 9.32336C2.40804 9.04205 2.25 8.66052 2.25 8.26269C2.25 7.86487 2.40804 7.48334 2.68934 7.20203C2.97064 6.92073 3.35218 6.7627 3.75 6.7627H11.332C11.5425 6.76312 11.7506 6.80786 11.9427 6.89401C12.1348 6.98015 12.3066 7.10577 12.447 7.2627L18.747 14.2627" stroke="black" stroke-width="1.5" stroke-linecap="round" stroke-linejoin="round"/>
<path d="M9.75 6.7627L6.75 3.0127" stroke="black" stroke-width="1.5" stroke-linecap="round" stroke-linejoin="round"/>
<path d="M14.7 9.7627H9.75" stroke="black" stroke-width="1.5" stroke-linecap="round" stroke-linejoin="round"/>
</svg>
