<svg width="24" height="24" viewBox="0 0 24 24" fill="none" xmlns="http://www.w3.org/2000/svg">
<path d="M22.4395 3.9004L19.1225 7.2164H16.7845V4.8784L20.1005 1.5614C19.0759 1.00177 17.9053 0.76714 16.7443 0.888688C15.5832 1.01024 14.4866 1.4822 13.6001 2.24188C12.7137 3.00156 12.0794 4.01298 11.7815 5.14176C11.4836 6.27055 11.5363 7.46325 11.9325 8.5614L1.58946 18.9004C1.12387 19.366 0.862305 19.9975 0.862305 20.6559C0.862305 21.3143 1.12387 21.9458 1.58946 22.4114C2.05504 22.877 2.68652 23.1385 3.34496 23.1385C4.0034 23.1385 4.63487 22.877 5.10046 22.4114L15.4405 12.0674C16.5386 12.4636 17.7313 12.5162 18.8601 12.2183C19.9889 11.9205 21.0003 11.2862 21.76 10.3997C22.5196 9.51329 22.9916 8.41668 23.1132 7.2556C23.2347 6.09452 23.0001 4.92394 22.4405 3.8994L22.4395 3.9004Z" stroke="black" stroke-width="1.5" stroke-linecap="round" stroke-linejoin="round"/>
</svg>
