<svg width="40" height="40" viewBox="0 0 40 40" fill="none" xmlns="http://www.w3.org/2000/svg">
<path d="M33.3333 0.833008H6.66667C5.74619 0.833008 5 1.5792 5 2.49967V37.4997C5 38.4201 5.74619 39.1663 6.66667 39.1663H33.3333C34.2538 39.1663 35 38.4201 35 37.4997V2.49967C35 1.5792 34.2538 0.833008 33.3333 0.833008Z" stroke="black" stroke-width="1.5" stroke-linecap="round" stroke-linejoin="round"/>
<path d="M5 14.167H35" stroke="black" stroke-width="1.5" stroke-linecap="round" stroke-linejoin="round"/>
<path d="M16.6663 4.16699H9.99967C9.0792 4.16699 8.33301 4.91318 8.33301 5.83366V9.16699C8.33301 10.0875 9.0792 10.8337 9.99967 10.8337H16.6663C17.5868 10.8337 18.333 10.0875 18.333 9.16699V5.83366C18.333 4.91318 17.5868 4.16699 16.6663 4.16699Z" stroke="black" stroke-width="1.5" stroke-linecap="round" stroke-linejoin="round"/>
<path d="M30.0003 4.16699H23.3337C22.4132 4.16699 21.667 4.91318 21.667 5.83366V9.16699C21.667 10.0875 22.4132 10.8337 23.3337 10.8337H30.0003C30.9208 10.8337 31.667 10.0875 31.667 9.16699V5.83366C31.667 4.91318 30.9208 4.16699 30.0003 4.16699Z" stroke="black" stroke-width="1.5" stroke-linecap="round" stroke-linejoin="round"/>
<path d="M5 19.167H35" stroke="black" stroke-width="1.5" stroke-linecap="round" stroke-linejoin="round"/>
</svg>
