<svg width="24" height="25" viewBox="0 0 24 25" fill="none" xmlns="http://www.w3.org/2000/svg">
<path d="M0.75 19H23.25" stroke="black" stroke-width="1.5" stroke-linecap="round" stroke-linejoin="round"/>
<path d="M21.7404 16.0214C21.8105 14.6993 21.6107 13.3767 21.1531 12.1343C20.6955 10.8919 19.9898 9.75572 19.0789 8.79489C18.168 7.83407 17.071 7.06877 15.8548 6.54562C14.6386 6.02247 13.3285 5.75243 12.0046 5.75195C10.6806 5.75148 9.37036 6.02058 8.15375 6.54285C6.93713 7.06512 5.8396 7.82964 4.92801 8.78981C4.01642 9.74998 3.30988 10.8857 2.85142 12.1278C2.39297 13.3698 2.1922 14.6923 2.26136 16.0144" stroke="black" stroke-width="1.5" stroke-linecap="round" stroke-linejoin="round"/>
<path d="M12 5.75C12.8284 5.75 13.5 5.07843 13.5 4.25C13.5 3.42157 12.8284 2.75 12 2.75C11.1716 2.75 10.5 3.42157 10.5 4.25C10.5 5.07843 11.1716 5.75 12 5.75Z" stroke="black" stroke-width="1.5" stroke-linecap="round" stroke-linejoin="round"/>
<path d="M21.781 19L20.539 22.25H12.015H3.49102L2.24902 19" stroke="black" stroke-width="1.5" stroke-linecap="round" stroke-linejoin="round"/>
</svg>
