<svg width="24" height="25" viewBox="0 0 24 25" fill="none" xmlns="http://www.w3.org/2000/svg">
<g clip-path="url(#clip0_501_9592)">
<path d="M16.029 8.31055C17.2055 8.49612 18.2772 9.09559 19.051 10.0011C19.8248 10.9065 20.25 12.0585 20.25 13.2495V13.4995C20.25 13.8974 20.092 14.2789 19.8107 14.5602C19.5294 14.8415 19.1478 14.9995 18.75 14.9995H17.75V22.2495C17.75 22.6474 17.592 23.0289 17.3107 23.3102C17.0294 23.5915 16.6478 23.7495 16.25 23.7495C15.8522 23.7495 15.4706 23.5915 15.1893 23.3102C14.908 23.0289 14.75 22.6474 14.75 22.2495" stroke="black" stroke-width="1.5" stroke-linecap="round" stroke-linejoin="round"/>
<path d="M9.1707 6.9C10.7309 6.9 11.9957 5.6352 11.9957 4.075C11.9957 2.5148 10.7309 1.25 9.1707 1.25C7.6105 1.25 6.3457 2.5148 6.3457 4.075C6.3457 5.6352 7.6105 6.9 9.1707 6.9Z" stroke="black" stroke-width="1.5" stroke-linecap="round" stroke-linejoin="round"/>
<path d="M17.5 15H14C13.6022 15 13.2206 14.842 12.9393 14.5607C12.658 14.2794 12.5 13.8978 12.5 13.5C12.5 13.1022 12.658 12.7206 12.9393 12.4393C13.2206 12.158 13.6022 12 14 12H16.5" stroke="black" stroke-width="1.5" stroke-linecap="round" stroke-linejoin="round"/>
<path d="M9.25 22.2497V17.0557" stroke="black" stroke-width="1.5" stroke-linecap="round" stroke-linejoin="round"/>
<path d="M12.25 17V22.25C12.25 22.6478 12.092 23.0294 11.8107 23.3107C11.5294 23.592 11.1478 23.75 10.75 23.75C10.3522 23.75 9.97064 23.592 9.68934 23.3107C9.40804 23.0294 9.25 22.6478 9.25 22.25" stroke="black" stroke-width="1.5" stroke-linecap="round" stroke-linejoin="round"/>
<path d="M13.7551 1.37133C14.1792 1.24284 14.6277 1.21595 15.0642 1.29283C15.5007 1.36972 15.9129 1.54823 16.2677 1.81393C16.6224 2.07963 16.9096 2.42506 17.1062 2.82231C17.3027 3.21956 17.403 3.65748 17.399 4.10067C17.3949 4.54386 17.2867 4.97988 17.083 5.3735C16.8793 5.76711 16.5858 6.10727 16.2263 6.36648C15.8668 6.62569 15.4513 6.79667 15.0135 6.86561C14.5757 6.93456 14.1278 6.89952 13.7061 6.76333" stroke="black" stroke-width="1.5" stroke-linecap="round" stroke-linejoin="round"/>
<path d="M3.75 13.25C3.75 11.9239 4.27678 10.6521 5.21447 9.71447C6.15215 8.77678 7.42392 8.25 8.75 8.25H9.75C10.8586 8.24983 11.9358 8.6181 12.8123 9.29692C13.6888 9.97573 14.3148 10.9266 14.592 12" stroke="black" stroke-width="1.5" stroke-linecap="round" stroke-linejoin="round"/>
<path d="M9.25 22.25C9.25 22.6478 9.09196 23.0294 8.81066 23.3107C8.52936 23.592 8.14782 23.75 7.75 23.75C7.35218 23.75 6.97064 23.592 6.68934 23.3107C6.40804 23.0294 6.25 22.6478 6.25 22.25V15.188H5.25C4.85218 15.188 4.47064 15.03 4.18934 14.7487C3.90804 14.4674 3.75 14.0858 3.75 13.688V13.25" stroke="black" stroke-width="1.5" stroke-linecap="round" stroke-linejoin="round"/>
</g>
<defs>
<clipPath id="clip0_501_9592">
<rect width="24" height="24" fill="white" transform="translate(0 0.5)"/>
</clipPath>
</defs>
</svg>
