<svg width="40" height="40" viewBox="0 0 40 40" fill="none" xmlns="http://www.w3.org/2000/svg">
<path d="M31.667 0.833008H8.33366C7.41318 0.833008 6.66699 1.5792 6.66699 2.49967V37.4997C6.66699 38.4201 7.41318 39.1663 8.33366 39.1663H31.667C32.5875 39.1663 33.3337 38.4201 33.3337 37.4997V2.49967C33.3337 1.5792 32.5875 0.833008 31.667 0.833008Z" stroke="black" stroke-width="1.5" stroke-linecap="round" stroke-linejoin="round"/>
<path d="M6.66699 14.167H33.3337" stroke="black" stroke-width="1.5" stroke-linecap="round" stroke-linejoin="round"/>
<path d="M24.167 4.16699H15.8337C14.9132 4.16699 14.167 4.91318 14.167 5.83366V9.16699C14.167 10.0875 14.9132 10.8337 15.8337 10.8337H24.167C25.0875 10.8337 25.8337 10.0875 25.8337 9.16699V5.83366C25.8337 4.91318 25.0875 4.16699 24.167 4.16699Z" stroke="black" stroke-width="1.5" stroke-linecap="round" stroke-linejoin="round"/>
<path d="M6.66699 19.167H33.3337" stroke="black" stroke-width="1.5" stroke-linecap="round" stroke-linejoin="round"/>
</svg>
