<svg width="129" height="20" viewBox="0 0 129 20" fill="none" xmlns="http://www.w3.org/2000/svg">
<g clip-path="url(#clip0_384_773)">
<path d="M63.4138 12.2922H63.3909V15.448H61.6885V7.32003H63.3687V7.85349H63.3909C63.8795 7.35407 64.4699 7.12695 65.1392 7.12695C66.7857 7.12695 67.9664 8.3532 67.9664 10.0671C67.9664 11.7928 66.7971 12.9961 65.1621 12.9961C64.4807 12.9961 63.8114 12.735 63.4138 12.2922ZM63.3909 10.0671C63.3909 11.0208 63.9813 11.6678 64.8332 11.6678C65.6844 11.6678 66.2862 11.0208 66.2862 10.0671C66.2862 9.12492 65.6844 8.45532 64.8332 8.45532C63.9813 8.45532 63.3909 9.11377 63.3909 10.0671Z" fill="#537FEF"/>
<path d="M69.1133 7.30859H70.7935V7.96704H70.8164C71.1344 7.42214 71.6905 7.12695 72.3038 7.12695C72.4965 7.12695 72.7008 7.1384 72.8935 7.19533V8.73906C72.6893 8.69358 72.508 8.67099 72.3261 8.67099C71.3838 8.67099 70.8164 9.26107 70.8164 10.2716V12.8145H69.1133V7.30859Z" fill="#537FEF"/>
<path d="M73.416 10.0671C73.416 8.34176 74.5853 7.12695 76.2426 7.12695C76.8559 7.12695 77.5144 7.33148 77.9909 7.84234H78.0138V7.30859H79.694V12.8145H78.0138V12.2811H77.9909C77.5029 12.7916 76.8559 12.9961 76.2426 12.9961C74.5853 12.9961 73.416 11.7813 73.416 10.0671ZM77.9794 10.0671C77.9794 9.11377 77.4005 8.45532 76.5493 8.45532C75.6866 8.45532 75.0848 9.11377 75.0848 10.0671C75.0848 11.0093 75.6866 11.6678 76.5493 11.6678C77.4005 11.6678 77.9794 11.0093 77.9794 10.0671Z" fill="#537FEF"/>
<path d="M87.1647 7.30859V12.9507C87.1647 14.5628 85.9387 15.6411 84.1224 15.6411C82.3283 15.6411 81.2048 14.7101 81.0343 13.348H82.7482C82.8621 13.8929 83.3386 14.2561 84.1109 14.2561C84.917 14.2561 85.4501 13.7453 85.4501 12.9621V12.2582H85.4278C84.9622 12.735 84.3266 12.9733 83.6904 12.9733C82.0446 12.9733 80.8867 11.7588 80.8867 10.0445C80.8867 8.34176 82.056 7.12695 83.7019 7.12695C84.3832 7.12695 84.9851 7.36552 85.4501 7.83089H85.4845V7.30859H87.1647ZM85.4501 10.0445C85.4501 9.11377 84.8598 8.45532 84.02 8.45532C83.1687 8.45532 82.5555 9.11377 82.5555 10.0445C82.5555 10.9867 83.1687 11.6337 84.02 11.6337C84.8598 11.6337 85.4501 10.9867 85.4501 10.0445Z" fill="#537FEF"/>
<path d="M88.585 7.30859H90.2651V7.84234H90.2874C90.7531 7.35407 91.3772 7.12695 91.9905 7.12695C92.6375 7.12695 93.2731 7.39955 93.6936 7.85349C94.2153 7.36552 94.9081 7.12695 95.5894 7.12695C97.0762 7.12695 98.1431 8.16012 98.1431 9.63578V12.8145H96.4292V9.8629C96.4292 9.09088 95.975 8.58002 95.2599 8.58002C94.6358 8.58002 94.2267 9.05684 94.2267 9.80627V12.8145H92.5128V9.8629C92.5128 9.09088 92.0929 8.58002 91.4345 8.58002C90.7417 8.58002 90.2874 9.05684 90.2874 9.80627V12.8145H88.585V7.30859Z" fill="#537FEF"/>
<path d="M99.1895 10.0671C99.1895 8.34176 100.359 7.12695 102.016 7.12695C102.629 7.12695 103.287 7.33148 103.764 7.84234H103.787V7.30859H105.467V12.8145H103.787V12.2811H103.764C103.276 12.7916 102.629 12.9961 102.016 12.9961C100.359 12.9961 99.1895 11.7813 99.1895 10.0671ZM103.753 10.0671C103.753 9.11377 103.174 8.45532 102.323 8.45532C101.459 8.45532 100.858 9.11377 100.858 10.0671C100.858 11.0093 101.459 11.6678 102.323 11.6678C103.174 11.6678 103.753 11.0093 103.753 10.0671Z" fill="#537FEF"/>
<path d="M107.489 10.7827V8.68235H106.229V7.3088H107.489V5.56055H109.192V7.3088H110.985V8.68235H109.192V10.5896C109.192 11.1915 109.555 11.5204 110.214 11.5204C110.452 11.5204 110.713 11.4864 110.985 11.4638V12.8602C110.667 12.9509 110.27 12.9964 109.907 12.9964C108.454 12.9964 107.489 12.1108 107.489 10.7827Z" fill="#537FEF"/>
<path d="M112.189 4.05078H113.938V5.60596H112.189V4.05078ZM112.212 7.30873H113.915V12.8147H112.212V7.30873Z" fill="#537FEF"/>
<path d="M115.073 10.0671C115.073 8.29627 116.321 7.12695 118.195 7.12695C119.773 7.12695 120.931 8.02397 121.09 9.40866H119.478C119.364 8.92069 118.944 8.5008 118.195 8.5008C117.298 8.5008 116.708 9.12492 116.708 10.0671C116.708 11.0093 117.298 11.6226 118.195 11.6226C118.944 11.6226 119.364 11.2024 119.478 10.7141H121.09C120.931 12.1106 119.773 12.9961 118.195 12.9961C116.321 12.9961 115.073 11.8268 115.073 10.0671Z" fill="#537FEF"/>
<path d="M123.261 19.5961H5.04738C2.48254 19.5961 0.40332 17.5169 0.40332 14.952V5.04738C0.40332 2.48254 2.48254 0.40332 5.04738 0.40332H123.261C125.825 0.40332 127.905 2.48254 127.905 5.04738V14.952C127.905 17.5169 125.825 19.5961 123.261 19.5961Z" stroke="#537FEF" stroke-width="0.807243" stroke-miterlimit="10"/>
<path d="M8.71671 7.24805H10.0647L11.3103 11.0162H11.3418L12.611 7.24805H13.9512L15.4648 12.7663H14.1561L13.1471 9.12426H13.1155L11.9094 12.7663H10.7506L9.54445 9.13214H9.51291L8.51174 12.7663H7.20312L8.71671 7.24805Z" fill="#537FEF"/>
<path d="M19.6861 7.24805H20.8607L23.3045 12.7663H21.988L21.515 11.639H19.0318L18.5509 12.7663H17.2266L19.6861 7.24805ZM21.0972 10.6221L20.2853 8.65914H20.2616L19.4418 10.6221H21.0972Z" fill="#537FEF"/>
<path d="M30.7993 10.0072C30.7993 11.6784 29.5931 12.7663 27.709 12.7663H25.5254V7.24805H27.709C29.5931 7.24805 30.7993 8.33593 30.7993 10.0072ZM29.538 10.0072C29.538 8.98236 28.7733 8.3044 27.6223 8.3044H26.7631V11.71H27.6223C28.7733 11.71 29.538 11.032 29.538 10.0072Z" fill="#537FEF"/>
<path d="M34.517 8.27287V9.5263H37.1342V10.5432H34.517V11.7415H37.5047V12.7663H33.2793V7.24805H37.5047V8.27287H34.517Z" fill="#537FEF"/>
<path d="M43.5078 7.24805H46.2669C47.4179 7.24805 48.1589 7.81564 48.1589 8.67491C48.1589 9.22674 47.8672 9.69973 47.3233 9.89681V9.92835C48.0091 10.0702 48.4269 10.5905 48.4269 11.2843C48.4269 12.1829 47.615 12.7663 46.3694 12.7663H43.5078V7.24805ZM46.0068 9.54207C46.5902 9.54207 46.9686 9.2425 46.9686 8.82469C46.9686 8.46995 46.6611 8.21768 46.0777 8.21768H44.7455V9.54207H46.0068ZM46.2433 11.7888C46.8267 11.7888 47.205 11.5286 47.205 11.1266C47.205 10.7246 46.8582 10.4644 46.3379 10.4644H44.7455V11.7888H46.2433Z" fill="#537FEF"/>
<path d="M52.5281 11.0478L50.2656 7.24805H51.6373L53.143 9.81798L54.6645 7.24805H56.0362L53.7737 11.0399V12.7663H52.5281V11.0478Z" fill="#537FEF"/>
</g>
<defs>
<clipPath id="clip0_384_773">
<rect width="128.309" height="20" fill="white"/>
</clipPath>
</defs>
</svg>
